  0
SECTION
  2
HEADER
  9
$ACADVER
  1
AC1009
  9
$FILLMODE
 70
0
  9
$EXTMIN
 10
-15.0495
 20
-9.2412
 30
0.0000
  9
$EXTMAX
 10
14.9870
 20
9.2075
 30
0.0000
  0
ENDSEC
  0
SECTION
  2
TABLES
  0
TABLE
  2
LTYPE
 70
1
  0
LTYPE
  2
CONTINUOUS
 70
64
  3
Solid line
 72
65
 73
0
 40
0
  0
ENDTAB
  0
TABLE
  2
LAYER
 70
255
  0
LAYER
  2
1
 70
64
 62
22
  6
CONTINUOUS
  0
LAYER
  2
16
 70
64
 62
175
  6
CONTINUOUS
  0
LAYER
  2
17
 70
64
 62
82
  6
CONTINUOUS
  0
LAYER
  2
18
 70
64
 62
82
  6
CONTINUOUS
  0
LAYER
  2
19
 70
64
 62
53
  6
CONTINUOUS
  0
LAYER
  2
20
 70
64
 62
7
  6
CONTINUOUS
  0
LAYER
  2
21
 70
64
 62
253
  6
CONTINUOUS
  0
LAYER
  2
22
 70
64
 62
253
  6
CONTINUOUS
  0
LAYER
  2
23
 70
64
 62
7
  6
CONTINUOUS
  0
LAYER
  2
24
 70
64
 62
7
  6
CONTINUOUS
  0
LAYER
  2
25
 70
64
 62
253
  6
CONTINUOUS
  0
LAYER
  2
26
 70
64
 62
253
  6
CONTINUOUS
  0
LAYER
  2
27
 70
64
 62
253
  6
CONTINUOUS
  0
LAYER
  2
28
 70
64
 62
253
  6
CONTINUOUS
  0
LAYER
  2
39
 70
64
 62
22
  6
CONTINUOUS
  0
LAYER
  2
40
 70
64
 62
175
  6
CONTINUOUS
  0
LAYER
  2
41
 70
64
 62
22
  6
CONTINUOUS
  0
LAYER
  2
42
 70
64
 62
175
  6
CONTINUOUS
  0
LAYER
  2
43
 70
64
 62
82
  6
CONTINUOUS
  0
LAYER
  2
48
 70
64
 62
253
  6
CONTINUOUS
  0
LAYER
  2
49
 70
64
 62
253
  6
CONTINUOUS
  0
LAYER
  2
51
 70
64
 62
253
  6
CONTINUOUS
  0
LAYER
  2
52
 70
64
 62
253
  6
CONTINUOUS
  0
ENDTAB
  0
ENDSEC
  0
SECTION
  2
BLOCKS
  0
BLOCK
  8
0
  2
RECT
 70
64
 10
0.0000
 20
0.0000
 30
0.0000
  3
RECT
  0
SOLID
  8
0
 10
-0.5000
 20
-0.5000
 30
0.0000
 11
0.5000
 21
-0.5000
 31
0.0000
 12
-0.5000
 22
0.5000
 32
0.0000
 13
0.5000
 23
0.5000
 33
0.0000
  0
ENDBLK
  8
0
  0
BLOCK
  8
0
  2
PIE
 70
64
 10
0.0000
 20
0.0000
 30
0.0000
  3
PIE
  0
CIRCLE
  8
0
 10
0.0000
 20
0.0000
 30
0.0000
 40
0.5000
  0
ENDBLK
  8
0
  0
BLOCK
  8
0
  2
OCTAGONP
 70
64
 10
0.0000
 20
0.0000
 30
0.0000
  3
OCTAGONP
  0
POLYLINE
  8
0
 66
1
 10
0.0000
 20
0.0000
 30
0.0000
 40
0.0000
 41
0.0000
 70
1
  0
VERTEX
  8
0
 10
-0.5000
 20
-0.2071
 30
0.0000
  0
VERTEX
  8
0
 10
-0.5000
 20
0.2071
 30
0.0000
  0
VERTEX
  8
0
 10
-0.2071
 20
0.5000
 30
0.0000
  0
VERTEX
  8
0
 10
0.2071
 20
0.5000
 30
0.0000
  0
VERTEX
  8
0
 10
0.5000
 20
0.2071
 30
0.0000
  0
VERTEX
  8
0
 10
0.5000
 20
-0.2071
 30
0.0000
  0
VERTEX
  8
0
 10
0.2071
 20
-0.5000
 30
0.0000
  0
VERTEX
  8
0
 10
-0.2071
 20
-0.5000
 30
0.0000
  0
SEQEND
  8
0
  0
ENDBLK
  8
0
  0
BLOCK
  8
0
  2
SQUAREP
 70
64
 10
0.0000
 20
0.0000
 30
0.0000
  3
SQUAREP
  0
SOLID
  8
0
 10
-0.5000
 20
-0.5000
 30
0.0000
 11
0.5000
 21
-0.5000
 31
0.0000
 12
-0.5000
 22
0.5000
 32
0.0000
 13
0.5000
 23
0.5000
 33
0.0000
  0
ENDBLK
  8
0
  0
BLOCK
  8
0
  2
ROUNDP
 70
64
 10
0.0000
 20
0.0000
 30
0.0000
  3
ROUNDP
  0
CIRCLE
  8
0
 10
0.0000
 20
0.0000
 30
0.0000
 40
0.5000
  0
ENDBLK
  8
0
  0
BLOCK
  8
0
  2
ANNULUSP
 70
64
 10
0.0000
 20
0.0000
 30
0.0000
  3
ANNULUSP
  0
CIRCLE
  8
0
 10
0.0000
 20
0.0000
 30
0.0000
 40
0.5000
  0
ENDBLK
  8
0
  0
BLOCK
  8
0
  2
THERMALP
 70
64
 10
0.0000
 20
0.0000
 30
0.0000
  3
THERMALP
  0
LINE
  8
0
 10
-0.2379
 20
0.4500
 30
0.0000
 11
0.2379
 21
0.4500
 31
0.0000
  0
LINE
  8
0
 10
0.4500
 20
0.2379
 30
0.0000
 11
0.4500
 21
-0.2379
 31
0.0000
  0
LINE
  8
0
 10
0.2379
 20
-0.4500
 30
0.0000
 11
-0.2379
 21
-0.4500
 31
0.0000
  0
LINE
  8
0
 10
-0.4500
 20
-0.2379
 30
0.0000
 11
-0.4500
 21
0.2379
 31
0.0000
  0
ENDBLK
  8
0
  0
BLOCK
  8
0
  2
OCTAGONV
 70
64
 10
0.0000
 20
0.0000
 30
0.0000
  3
OCTAGONV
  0
POLYLINE
  8
0
 66
1
 10
0.0000
 20
0.0000
 30
0.0000
 40
0.0000
 41
0.0000
 70
1
  0
VERTEX
  8
0
 10
-0.5000
 20
-0.2071
 30
0.0000
  0
VERTEX
  8
0
 10
-0.5000
 20
0.2071
 30
0.0000
  0
VERTEX
  8
0
 10
-0.2071
 20
0.5000
 30
0.0000
  0
VERTEX
  8
0
 10
0.2071
 20
0.5000
 30
0.0000
  0
VERTEX
  8
0
 10
0.5000
 20
0.2071
 30
0.0000
  0
VERTEX
  8
0
 10
0.5000
 20
-0.2071
 30
0.0000
  0
VERTEX
  8
0
 10
0.2071
 20
-0.5000
 30
0.0000
  0
VERTEX
  8
0
 10
-0.2071
 20
-0.5000
 30
0.0000
  0
SEQEND
  8
0
  0
ENDBLK
  8
0
  0
BLOCK
  8
0
  2
SQUAREV
 70
64
 10
0.0000
 20
0.0000
 30
0.0000
  3
SQUAREV
  0
SOLID
  8
0
 10
-0.5000
 20
-0.5000
 30
0.0000
 11
0.5000
 21
-0.5000
 31
0.0000
 12
-0.5000
 22
0.5000
 32
0.0000
 13
0.5000
 23
0.5000
 33
0.0000
  0
ENDBLK
  8
0
  0
BLOCK
  8
0
  2
ROUNDV
 70
64
 10
0.0000
 20
0.0000
 30
0.0000
  3
ROUNDV
  0
CIRCLE
  8
0
 10
0.0000
 20
0.0000
 30
0.0000
 40
0.5000
  0
ENDBLK
  8
0
  0
BLOCK
  8
0
  2
ANNULUSV
 70
64
 10
0.0000
 20
0.0000
 30
0.0000
  3
ANNULUSV
  0
CIRCLE
  8
0
 10
0.0000
 20
0.0000
 30
0.0000
 40
0.5000
  0
ENDBLK
  8
0
  0
BLOCK
  8
0
  2
THERMALV
 70
64
 10
0.0000
 20
0.0000
 30
0.0000
  3
THERMALV
  0
LINE
  8
0
 10
-0.2379
 20
0.4500
 30
0.0000
 11
0.2379
 21
0.4500
 31
0.0000
  0
LINE
  8
0
 10
0.4500
 20
0.2379
 30
0.0000
 11
0.4500
 21
-0.2379
 31
0.0000
  0
LINE
  8
0
 10
0.2379
 20
-0.4500
 30
0.0000
 11
-0.2379
 21
-0.4500
 31
0.0000
  0
LINE
  8
0
 10
-0.4500
 20
-0.2379
 30
0.0000
 11
-0.4500
 21
0.2379
 31
0.0000
  0
ENDBLK
  8
0
  0
ENDSEC
  0
SECTION
  2
ENTITIES
  0
POINT
  8
23
 10
0.0000
 20
0.0000
 30
0.0000
  0
LINE
  8
21
 10
-14.9860
 20
-0.2540
 30
0.0000
 11
-14.9860
 21
0.0000
 31
0.0000
  0
ARC
  8
20
 10
-11.6628
 20
0.0000
 30
0.0000
 40
3.3232
 50
122.7791
 51
180.0000
  0
LINE
  8
20
 10
-13.4620
 20
2.7940
 30
0.0000
 11
-3.8100
 21
7.6200
 31
0.0000
  0
ARC
  8
20
 10
7.2390
 20
-14.4780
 30
0.0000
 40
24.7063
 50
107.0378
 51
116.5651
  0
LINE
  8
20
 10
0.0000
 20
9.1440
 30
0.0000
 11
5.3340
 21
9.1440
 31
0.0000
  0
LINE
  8
20
 10
5.3340
 20
9.1440
 30
0.0000
 11
5.3340
 21
6.8580
 31
0.0000
  0
LINE
  8
20
 10
5.3340
 20
6.8580
 30
0.0000
 11
12.9540
 21
3.0480
 31
0.0000
  0
ARC
  8
20
 10
11.3594
 20
-0.1411
 30
0.0000
 40
3.5655
 50
18.9369
 51
63.4349
  0
ARC
  8
20
 10
11.3857
 20
-0.1321
 30
0.0000
 40
3.5378
 50
311.2003
 51
18.9369
  0
LINE
  8
20
 10
13.7160
 20
-2.7940
 30
0.0000
 11
6.3500
 21
-7.3660
 31
0.0000
  0
ARC
  8
20
 10
-0.0043
 20
2.8714
 30
0.0000
 40
12.0491
 50
233.8504
 51
301.8275
  0
LINE
  8
20
 10
-7.1120
 20
-6.8580
 30
0.0000
 11
-12.9540
 21
-3.3020
 31
0.0000
  0
ARC
  8
20
 10
-10.6990
 20
0.4027
 30
0.0000
 40
4.3370
 50
188.7088
 51
238.6713
  0
LINE
  8
21
 10
-4.0259
 20
-7.3444
 30
0.0000
 11
-3.7802
 21
-7.0987
 31
0.0000
  0
LINE
  8
21
 10
-3.7802
 20
-7.0987
 30
0.0000
 11
-3.7802
 21
-7.8359
 31
0.0000
  0
LINE
  8
21
 10
-4.0259
 20
-7.8359
 30
0.0000
 11
-3.5344
 21
-7.8359
 31
0.0000
  0
LINE
  8
21
 10
-0.9944
 20
-7.8359
 30
0.0000
 11
-1.4859
 21
-7.8359
 31
0.0000
  0
LINE
  8
21
 10
-1.4859
 20
-7.8359
 30
0.0000
 11
-0.9944
 21
-7.3444
 31
0.0000
  0
LINE
  8
21
 10
-0.9944
 20
-7.3444
 30
0.0000
 11
-0.9944
 21
-7.2215
 31
0.0000
  0
LINE
  8
21
 10
-0.9944
 20
-7.2215
 30
0.0000
 11
-1.1173
 21
-7.0987
 31
0.0000
  0
LINE
  8
21
 10
-1.1173
 20
-7.0987
 30
0.0000
 11
-1.3630
 21
-7.0987
 31
0.0000
  0
LINE
  8
21
 10
-1.3630
 20
-7.0987
 30
0.0000
 11
-1.4859
 21
-7.2215
 31
0.0000
  0
LINE
  8
21
 10
1.0541
 20
-7.2215
 30
0.0000
 11
1.1770
 21
-7.0987
 31
0.0000
  0
LINE
  8
21
 10
1.1770
 20
-7.0987
 30
0.0000
 11
1.4227
 21
-7.0987
 31
0.0000
  0
LINE
  8
21
 10
1.4227
 20
-7.0987
 30
0.0000
 11
1.5456
 21
-7.2215
 31
0.0000
  0
LINE
  8
21
 10
1.5456
 20
-7.2215
 30
0.0000
 11
1.5456
 21
-7.3444
 31
0.0000
  0
LINE
  8
21
 10
1.5456
 20
-7.3444
 30
0.0000
 11
1.4227
 21
-7.4673
 31
0.0000
  0
LINE
  8
21
 10
1.4227
 20
-7.4673
 30
0.0000
 11
1.2998
 21
-7.4673
 31
0.0000
  0
LINE
  8
21
 10
1.4227
 20
-7.4673
 30
0.0000
 11
1.5456
 21
-7.5902
 31
0.0000
  0
LINE
  8
21
 10
1.5456
 20
-7.5902
 30
0.0000
 11
1.5456
 21
-7.7130
 31
0.0000
  0
LINE
  8
21
 10
1.5456
 20
-7.7130
 30
0.0000
 11
1.4227
 21
-7.8359
 31
0.0000
  0
LINE
  8
21
 10
1.4227
 20
-7.8359
 30
0.0000
 11
1.1770
 21
-7.8359
 31
0.0000
  0
LINE
  8
21
 10
1.1770
 20
-7.8359
 30
0.0000
 11
1.0541
 21
-7.7130
 31
0.0000
  0
LINE
  8
21
 10
3.9627
 20
-7.8359
 30
0.0000
 11
3.9627
 21
-7.0987
 31
0.0000
  0
LINE
  8
21
 10
3.9627
 20
-7.0987
 30
0.0000
 11
3.5941
 21
-7.4673
 31
0.0000
  0
LINE
  8
21
 10
3.5941
 20
-7.4673
 30
0.0000
 11
4.0856
 21
-7.4673
 31
0.0000
  0
LINE
  8
21
 10
-5.5904
 20
-0.4953
 30
0.0000
 11
-5.5904
 21
1.0046
 31
0.0000
  0
LINE
  8
21
 10
-5.5904
 20
1.0046
 30
0.0000
 11
-5.0904
 21
0.5046
 31
0.0000
  0
LINE
  8
21
 10
-5.0904
 20
0.5046
 30
0.0000
 11
-4.5904
 21
1.0046
 31
0.0000
  0
LINE
  8
21
 10
-4.5904
 20
1.0046
 30
0.0000
 11
-4.5904
 21
-0.4953
 31
0.0000
  0
LINE
  8
21
 10
-3.9532
 20
-0.4953
 30
0.0000
 11
-3.9532
 21
1.0046
 31
0.0000
  0
LINE
  8
21
 10
-3.9532
 20
1.0046
 30
0.0000
 11
-3.2033
 21
1.0046
 31
0.0000
  0
LINE
  8
21
 10
-3.2033
 20
1.0046
 30
0.0000
 11
-2.9533
 21
0.7546
 31
0.0000
  0
LINE
  8
21
 10
-2.9533
 20
0.7546
 30
0.0000
 11
-2.9533
 21
0.2546
 31
0.0000
  0
LINE
  8
21
 10
-2.9533
 20
0.2546
 30
0.0000
 11
-3.2033
 21
0.0047
 31
0.0000
  0
LINE
  8
21
 10
-3.2033
 20
0.0047
 30
0.0000
 11
-3.9532
 21
0.0047
 31
0.0000
  0
LINE
  8
21
 10
-2.3160
 20
1.0046
 30
0.0000
 11
-1.3161
 21
-0.4953
 31
0.0000
  0
LINE
  8
21
 10
-1.3161
 20
1.0046
 30
0.0000
 11
-2.3160
 21
-0.4953
 31
0.0000
  0
LINE
  8
21
 10
-0.6789
 20
0.5046
 30
0.0000
 11
-0.1789
 21
1.0046
 31
0.0000
  0
LINE
  8
21
 10
-0.1789
 20
1.0046
 30
0.0000
 11
-0.1789
 21
-0.4953
 31
0.0000
  0
LINE
  8
21
 10
-0.6789
 20
-0.4953
 30
0.0000
 11
0.3210
 21
-0.4953
 31
0.0000
  0
LINE
  8
21
 10
1.9582
 20
-0.4953
 30
0.0000
 11
0.9583
 21
-0.4953
 31
0.0000
  0
LINE
  8
21
 10
0.9583
 20
-0.4953
 30
0.0000
 11
1.9582
 21
0.5046
 31
0.0000
  0
LINE
  8
21
 10
1.9582
 20
0.5046
 30
0.0000
 11
1.9582
 21
0.7546
 31
0.0000
  0
LINE
  8
21
 10
1.9582
 20
0.7546
 30
0.0000
 11
1.7082
 21
1.0046
 31
0.0000
  0
LINE
  8
21
 10
1.7082
 20
1.0046
 30
0.0000
 11
1.2082
 21
1.0046
 31
0.0000
  0
LINE
  8
21
 10
1.2082
 20
1.0046
 30
0.0000
 11
0.9583
 21
0.7546
 31
0.0000
  0
LINE
  8
21
 10
3.5953
 20
0.7546
 30
0.0000
 11
3.3454
 21
1.0046
 31
0.0000
  0
LINE
  8
21
 10
3.3454
 20
1.0046
 30
0.0000
 11
2.8454
 21
1.0046
 31
0.0000
  0
LINE
  8
21
 10
2.8454
 20
1.0046
 30
0.0000
 11
2.5954
 21
0.7546
 31
0.0000
  0
LINE
  8
21
 10
2.5954
 20
0.7546
 30
0.0000
 11
2.5954
 21
-0.2453
 31
0.0000
  0
LINE
  8
21
 10
2.5954
 20
-0.2453
 30
0.0000
 11
2.8454
 21
-0.4953
 31
0.0000
  0
LINE
  8
21
 10
2.8454
 20
-0.4953
 30
0.0000
 11
3.3454
 21
-0.4953
 31
0.0000
  0
LINE
  8
21
 10
3.3454
 20
-0.4953
 30
0.0000
 11
3.5953
 21
-0.2453
 31
0.0000
  0
LINE
  8
21
 10
3.5953
 20
-0.2453
 30
0.0000
 11
3.5953
 21
0.2546
 31
0.0000
  0
LINE
  8
21
 10
3.5953
 20
0.2546
 30
0.0000
 11
3.0954
 21
0.2546
 31
0.0000
  0
LINE
  8
21
 10
4.2326
 20
-0.4953
 30
0.0000
 11
4.2326
 21
1.0046
 31
0.0000
  0
LINE
  8
21
 10
4.2326
 20
1.0046
 30
0.0000
 11
4.9825
 21
1.0046
 31
0.0000
  0
LINE
  8
21
 10
4.9825
 20
1.0046
 30
0.0000
 11
5.2325
 21
0.7546
 31
0.0000
  0
LINE
  8
21
 10
5.2325
 20
0.7546
 30
0.0000
 11
5.2325
 21
0.2546
 31
0.0000
  0
LINE
  8
21
 10
5.2325
 20
0.2546
 30
0.0000
 11
4.9825
 21
0.0047
 31
0.0000
  0
LINE
  8
21
 10
4.9825
 20
0.0047
 30
0.0000
 11
4.2326
 21
0.0047
 31
0.0000
  0
CIRCLE
  8
20
 10
-11.5570
 20
0.0000
 30
0.0000
 40
2.0193
  0
CIRCLE
  8
20
 10
11.5570
 20
0.0000
 30
0.0000
 40
2.0193
  0
ENDSEC
  0
EOF
